<svg width="322" height="159" viewBox="0 0 322 159" fill="none" xmlns="http://www.w3.org/2000/svg">
<rect width="322" height="159" rx="12" fill="#5570F1"/>
<rect x="15" y="11" width="36" height="36" rx="8" fill="white" fill-opacity="0.16"/>
<path fill-rule="evenodd" clip-rule="evenodd" d="M40.8491 32.1101C40.8491 35.0917 39.0916 36.8492 36.1099 36.8492H29.6249C26.6357 36.8492 24.8749 35.0917 24.8749 32.1101V25.6101C24.8749 22.6326 25.9699 20.8751 28.9524 20.8751H30.6191C31.2174 20.8759 31.7807 21.1567 32.1391 21.6359L32.8999 22.6476C33.2599 23.1259 33.8233 23.4076 34.4216 23.4084H36.7799C39.7691 23.4084 40.8724 24.9301 40.8724 27.9726L40.8491 32.1101Z" stroke="white" stroke-width="1.5" stroke-linecap="round" stroke-linejoin="round"/>
<path d="M29.2342 31.0525H36.5133" stroke="white" stroke-width="1.5" stroke-linecap="round" stroke-linejoin="round"/>
<path d="M16.6506 107H15.358L19.0966 96.8182H20.3693L24.108 107H22.8153L19.7727 98.429H19.6932L16.6506 107ZM17.1278 103.023H22.3381V104.116H17.1278V103.023ZM26.7081 96.8182V107H25.5348V96.8182H26.7081ZM30.0304 96.8182V107H28.8571V96.8182H30.0304ZM36.2759 107V96.8182H39.7163C40.515 96.8182 41.168 96.9624 41.6751 97.2507C42.1855 97.5357 42.5633 97.9219 42.8086 98.4091C43.0539 98.8963 43.1765 99.4399 43.1765 100.04C43.1765 100.64 43.0539 101.185 42.8086 101.675C42.5666 102.166 42.1921 102.557 41.685 102.849C41.1779 103.137 40.5283 103.281 39.7362 103.281H37.2702V102.188H39.6964C40.2433 102.188 40.6824 102.093 41.0138 101.904C41.3453 101.715 41.5856 101.46 41.7347 101.138C41.8872 100.814 41.9634 100.447 41.9634 100.04C41.9634 99.6321 41.8872 99.2675 41.7347 98.946C41.5856 98.6245 41.3436 98.3726 41.0089 98.1903C40.6741 98.0047 40.23 97.9119 39.6765 97.9119H37.5089V107H36.2759ZM45.0036 107V99.3636H46.1371V100.517H46.2166C46.3558 100.139 46.6077 99.8326 46.9723 99.5973C47.3369 99.362 47.7479 99.2443 48.2053 99.2443C48.2914 99.2443 48.3991 99.246 48.5284 99.2493C48.6577 99.2526 48.7554 99.2576 48.8217 99.2642V100.457C48.782 100.447 48.6908 100.433 48.5483 100.413C48.4091 100.389 48.2616 100.378 48.1058 100.378C47.7346 100.378 47.4032 100.456 47.1115 100.612C46.8232 100.764 46.5945 100.976 46.4254 101.248C46.2597 101.516 46.1768 101.823 46.1768 102.168V107H45.0036ZM53.0824 107.159C52.393 107.159 51.7881 106.995 51.2678 106.667C50.7507 106.339 50.3464 105.88 50.0547 105.29C49.7663 104.7 49.6222 104.01 49.6222 103.222C49.6222 102.426 49.7663 101.732 50.0547 101.138C50.3464 100.545 50.7507 100.085 51.2678 99.7564C51.7881 99.4283 52.393 99.2642 53.0824 99.2642C53.7718 99.2642 54.375 99.4283 54.892 99.7564C55.4124 100.085 55.8168 100.545 56.1051 101.138C56.3968 101.732 56.5426 102.426 56.5426 103.222C56.5426 104.01 56.3968 104.7 56.1051 105.29C55.8168 105.88 55.4124 106.339 54.892 106.667C54.375 106.995 53.7718 107.159 53.0824 107.159ZM53.0824 106.105C53.6061 106.105 54.0369 105.971 54.375 105.702C54.7131 105.434 54.9633 105.081 55.1257 104.643C55.2881 104.206 55.3693 103.732 55.3693 103.222C55.3693 102.711 55.2881 102.236 55.1257 101.795C54.9633 101.354 54.7131 100.998 54.375 100.726C54.0369 100.454 53.6061 100.318 53.0824 100.318C52.5587 100.318 52.1278 100.454 51.7898 100.726C51.4517 100.998 51.2015 101.354 51.0391 101.795C50.8767 102.236 50.7955 102.711 50.7955 103.222C50.7955 103.732 50.8767 104.206 51.0391 104.643C51.2015 105.081 51.4517 105.434 51.7898 105.702C52.1278 105.971 52.5587 106.105 53.0824 106.105ZM61.2172 107.159C60.5808 107.159 60.019 106.998 59.5318 106.677C59.0446 106.352 58.6634 105.895 58.3883 105.305C58.1132 104.711 57.9757 104.01 57.9757 103.202C57.9757 102.4 58.1132 101.704 58.3883 101.114C58.6634 100.524 59.0462 100.068 59.5368 99.7464C60.0273 99.425 60.594 99.2642 61.237 99.2642C61.7342 99.2642 62.127 99.3471 62.4153 99.5128C62.707 99.6752 62.929 99.8608 63.0815 100.07C63.2373 100.275 63.3583 100.444 63.4444 100.577H63.5439V96.8182H64.7172V107H63.5836V105.827H63.4444C63.3583 105.966 63.2356 106.142 63.0765 106.354C62.9174 106.562 62.6904 106.75 62.3954 106.915C62.1004 107.078 61.7077 107.159 61.2172 107.159ZM61.3762 106.105C61.8469 106.105 62.2446 105.982 62.5694 105.737C62.8942 105.489 63.1412 105.146 63.3102 104.708C63.4792 104.267 63.5637 103.759 63.5637 103.182C63.5637 102.612 63.4809 102.113 63.3152 101.685C63.1494 101.254 62.9042 100.92 62.5794 100.681C62.2546 100.439 61.8535 100.318 61.3762 100.318C60.8791 100.318 60.4648 100.446 60.1333 100.701C59.8052 100.953 59.5583 101.296 59.3926 101.73C59.2302 102.161 59.149 102.645 59.149 103.182C59.149 103.725 59.2318 104.219 59.3975 104.663C59.5666 105.104 59.8152 105.455 60.1433 105.717C60.4747 105.976 60.8857 106.105 61.3762 106.105ZM71.8414 103.878V99.3636H73.0147V107H71.8414V105.707H71.7619C71.5829 106.095 71.3045 106.425 70.9267 106.697C70.5488 106.965 70.0716 107.099 69.4949 107.099C69.0176 107.099 68.5933 106.995 68.2221 106.786C67.8509 106.574 67.5592 106.256 67.3471 105.832C67.135 105.404 67.0289 104.866 67.0289 104.216V99.3636H68.2022V104.136C68.2022 104.693 68.358 105.137 68.6696 105.469C68.9844 105.8 69.3855 105.966 69.8727 105.966C70.1644 105.966 70.461 105.891 70.7626 105.742C71.0675 105.593 71.3227 105.364 71.5282 105.056C71.737 104.748 71.8414 104.355 71.8414 103.878ZM78.266 107.159C77.5501 107.159 76.9336 106.99 76.4165 106.652C75.8995 106.314 75.5018 105.848 75.2234 105.255C74.945 104.662 74.8058 103.984 74.8058 103.222C74.8058 102.446 74.9483 101.762 75.2333 101.168C75.5217 100.572 75.9227 100.106 76.4364 99.7713C76.9535 99.4332 77.5567 99.2642 78.2461 99.2642C78.783 99.2642 79.2669 99.3636 79.6978 99.5625C80.1287 99.7614 80.4817 100.04 80.7567 100.398C81.0318 100.756 81.2025 101.173 81.2688 101.651H80.0955C80.006 101.303 79.8072 100.994 79.4989 100.726C79.194 100.454 78.783 100.318 78.266 100.318C77.8086 100.318 77.4076 100.437 77.0629 100.676C76.7215 100.911 76.4547 101.245 76.2624 101.675C76.0735 102.103 75.979 102.605 75.979 103.182C75.979 103.772 76.0719 104.286 76.2575 104.723C76.4464 105.161 76.7115 105.5 77.0529 105.742C77.3976 105.984 77.802 106.105 78.266 106.105C78.5709 106.105 78.8477 106.052 79.0962 105.946C79.3448 105.84 79.5553 105.688 79.7276 105.489C79.9 105.29 80.0226 105.051 80.0955 104.773H81.2688C81.2025 105.223 81.0385 105.629 80.7766 105.991C80.5181 106.349 80.1751 106.634 79.7475 106.846C79.3233 107.055 78.8294 107.159 78.266 107.159ZM86.305 99.3636V100.358H82.3477V99.3636H86.305ZM83.5011 97.5341H84.6744V104.812C84.6744 105.144 84.7224 105.393 84.8185 105.558C84.918 105.721 85.0439 105.83 85.1964 105.886C85.3522 105.939 85.5162 105.966 85.6886 105.966C85.8178 105.966 85.9239 105.959 86.0067 105.946C86.0896 105.929 86.1559 105.916 86.2056 105.906L86.4442 106.96C86.3647 106.99 86.2537 107.02 86.1112 107.05C85.9686 107.083 85.788 107.099 85.5692 107.099C85.2378 107.099 84.913 107.028 84.5948 106.886C84.2799 106.743 84.0181 106.526 83.8093 106.234C83.6038 105.943 83.5011 105.575 83.5011 105.131V97.5341ZM93.3423 101.074L92.2884 101.372C92.2221 101.196 92.1243 101.026 91.995 100.86C91.8691 100.691 91.6967 100.552 91.478 100.442C91.2592 100.333 90.9792 100.278 90.6378 100.278C90.1705 100.278 89.781 100.386 89.4695 100.602C89.1612 100.814 89.0071 101.084 89.0071 101.412C89.0071 101.704 89.1132 101.934 89.3253 102.103C89.5374 102.272 89.8688 102.413 90.3196 102.526L91.4531 102.804C92.1359 102.97 92.6446 103.223 92.9794 103.565C93.3142 103.903 93.4815 104.339 93.4815 104.872C93.4815 105.31 93.3556 105.701 93.1037 106.045C92.8551 106.39 92.5071 106.662 92.0597 106.861C91.6122 107.06 91.0919 107.159 90.4986 107.159C89.7197 107.159 89.075 106.99 88.5646 106.652C88.0542 106.314 87.7311 105.82 87.5952 105.17L88.7088 104.892C88.8149 105.303 89.0154 105.611 89.3104 105.817C89.6087 106.022 89.9981 106.125 90.4787 106.125C91.0256 106.125 91.4598 106.009 91.7812 105.777C92.1061 105.542 92.2685 105.26 92.2685 104.932C92.2685 104.667 92.1757 104.445 91.9901 104.266C91.8045 104.083 91.5194 103.947 91.1349 103.858L89.8622 103.56C89.1629 103.394 88.6491 103.137 88.321 102.789C87.9962 102.438 87.8338 101.999 87.8338 101.472C87.8338 101.041 87.9548 100.66 88.1967 100.328C88.442 99.9967 88.7751 99.7365 89.196 99.5476C89.6203 99.3587 90.1009 99.2642 90.6378 99.2642C91.3935 99.2642 91.9867 99.4299 92.4176 99.7614C92.8518 100.093 93.16 100.53 93.3423 101.074Z" fill="white"/>
<path d="M15.92 136.96V135.24L22.64 125.6H25.4V134.98H27.26V136.96H25.4V140H23.16V136.96H15.92ZM23.26 127.92L18.54 134.98H23.26V127.92ZM38.5492 127.38H31.8492V131.36C32.1292 130.987 32.5426 130.673 33.0892 130.42C33.6492 130.167 34.2426 130.04 34.8692 130.04C35.9892 130.04 36.8959 130.28 37.5892 130.76C38.2959 131.24 38.7959 131.847 39.0892 132.58C39.3959 133.313 39.5492 134.087 39.5492 134.9C39.5492 135.887 39.3559 136.767 38.9692 137.54C38.5959 138.3 38.0292 138.9 37.2692 139.34C36.5226 139.78 35.6026 140 34.5092 140C33.0559 140 31.8892 139.64 31.0092 138.92C30.1292 138.2 29.6026 137.247 29.4292 136.06H31.6492C31.7959 136.687 32.1226 137.187 32.6292 137.56C33.1359 137.92 33.7692 138.1 34.5292 138.1C35.4759 138.1 36.1826 137.813 36.6492 137.24C37.1292 136.667 37.3692 135.907 37.3692 134.96C37.3692 134 37.1292 133.267 36.6492 132.76C36.1692 132.24 35.4626 131.98 34.5292 131.98C33.8759 131.98 33.3226 132.147 32.8692 132.48C32.4292 132.8 32.1092 133.24 31.9092 133.8H29.7492V125.38H38.5492V127.38Z" fill="white"/>
<path d="M178.651 107H177.358L181.097 96.8182H182.369L186.108 107H184.815L181.773 98.429H181.693L178.651 107ZM179.128 103.023H184.338V104.116H179.128V103.023ZM190.637 107.159C189.921 107.159 189.305 106.99 188.788 106.652C188.271 106.314 187.873 105.848 187.594 105.255C187.316 104.662 187.177 103.984 187.177 103.222C187.177 102.446 187.319 101.762 187.604 101.168C187.893 100.572 188.294 100.106 188.808 99.7713C189.325 99.4332 189.928 99.2642 190.617 99.2642C191.154 99.2642 191.638 99.3636 192.069 99.5625C192.5 99.7614 192.853 100.04 193.128 100.398C193.403 100.756 193.574 101.173 193.64 101.651H192.467C192.377 101.303 192.178 100.994 191.87 100.726C191.565 100.454 191.154 100.318 190.637 100.318C190.18 100.318 189.779 100.437 189.434 100.676C189.093 100.911 188.826 101.245 188.634 101.675C188.445 102.103 188.35 102.605 188.35 103.182C188.35 103.772 188.443 104.286 188.629 104.723C188.817 105.161 189.083 105.5 189.424 105.742C189.769 105.984 190.173 106.105 190.637 106.105C190.942 106.105 191.219 106.052 191.467 105.946C191.716 105.84 191.926 105.688 192.099 105.489C192.271 105.29 192.394 105.051 192.467 104.773H193.64C193.574 105.223 193.41 105.629 193.148 105.991C192.889 106.349 192.546 106.634 192.119 106.846C191.694 107.055 191.201 107.159 190.637 107.159ZM198.676 99.3636V100.358H194.719V99.3636H198.676ZM195.872 97.5341H197.045V104.812C197.045 105.144 197.094 105.393 197.19 105.558C197.289 105.721 197.415 105.83 197.567 105.886C197.723 105.939 197.887 105.966 198.06 105.966C198.189 105.966 198.295 105.959 198.378 105.946C198.461 105.929 198.527 105.916 198.577 105.906L198.815 106.96C198.736 106.99 198.625 107.02 198.482 107.05C198.34 107.083 198.159 107.099 197.94 107.099C197.609 107.099 197.284 107.028 196.966 106.886C196.651 106.743 196.389 106.526 196.18 106.234C195.975 105.943 195.872 105.575 195.872 105.131V97.5341ZM200.441 107V99.3636H201.614V107H200.441ZM201.038 98.0909C200.809 98.0909 200.612 98.013 200.446 97.8572C200.284 97.7015 200.202 97.5142 200.202 97.2955C200.202 97.0767 200.284 96.8894 200.446 96.7337C200.612 96.5779 200.809 96.5 201.038 96.5C201.266 96.5 201.462 96.5779 201.624 96.7337C201.79 96.8894 201.873 97.0767 201.873 97.2955C201.873 97.5142 201.79 97.7015 201.624 97.8572C201.462 98.013 201.266 98.0909 201.038 98.0909ZM210.008 99.3636L207.184 107H205.991L203.167 99.3636H204.439L206.547 105.449H206.627L208.735 99.3636H210.008ZM214.485 107.159C213.749 107.159 213.114 106.997 212.58 106.672C212.05 106.344 211.641 105.886 211.352 105.3C211.067 104.71 210.925 104.024 210.925 103.241C210.925 102.459 211.067 101.77 211.352 101.173C211.641 100.573 212.042 100.106 212.556 99.7713C213.073 99.4332 213.676 99.2642 214.365 99.2642C214.763 99.2642 215.156 99.3305 215.544 99.4631C215.931 99.5956 216.284 99.8111 216.602 100.109C216.921 100.404 217.174 100.795 217.363 101.283C217.552 101.77 217.646 102.37 217.646 103.082V103.58H211.76V102.565H216.453C216.453 102.134 216.367 101.75 216.195 101.412C216.026 101.074 215.784 100.807 215.469 100.612C215.157 100.416 214.789 100.318 214.365 100.318C213.898 100.318 213.494 100.434 213.152 100.666C212.814 100.895 212.554 101.193 212.372 101.561C212.189 101.929 212.098 102.323 212.098 102.744V103.42C212.098 103.997 212.198 104.486 212.396 104.887C212.599 105.285 212.879 105.588 213.237 105.797C213.595 106.002 214.011 106.105 214.485 106.105C214.793 106.105 215.071 106.062 215.32 105.976C215.572 105.886 215.789 105.754 215.971 105.578C216.153 105.399 216.294 105.177 216.394 104.912L217.527 105.23C217.408 105.615 217.207 105.953 216.926 106.244C216.644 106.533 216.296 106.758 215.882 106.92C215.467 107.08 215.002 107.159 214.485 107.159Z" fill="white"/>
<path d="M178.16 129.02C178.24 127.78 178.713 126.813 179.58 126.12C180.46 125.427 181.58 125.08 182.94 125.08C183.873 125.08 184.68 125.247 185.36 125.58C186.04 125.913 186.553 126.367 186.9 126.94C187.247 127.513 187.42 128.16 187.42 128.88C187.42 129.707 187.2 130.413 186.76 131C186.32 131.587 185.793 131.98 185.18 132.18V132.26C185.967 132.5 186.58 132.94 187.02 133.58C187.46 134.207 187.68 135.013 187.68 136C187.68 136.787 187.5 137.487 187.14 138.1C186.78 138.713 186.247 139.2 185.54 139.56C184.833 139.907 183.987 140.08 183 140.08C181.56 140.08 180.373 139.713 179.44 138.98C178.52 138.233 178.027 137.167 177.96 135.78H180.16C180.213 136.487 180.487 137.067 180.98 137.52C181.473 137.96 182.14 138.18 182.98 138.18C183.793 138.18 184.42 137.96 184.86 137.52C185.3 137.067 185.52 136.487 185.52 135.78C185.52 134.847 185.22 134.187 184.62 133.8C184.033 133.4 183.127 133.2 181.9 133.2H181.38V131.32H181.92C183 131.307 183.82 131.127 184.38 130.78C184.953 130.433 185.24 129.887 185.24 129.14C185.24 128.5 185.033 127.993 184.62 127.62C184.207 127.233 183.62 127.04 182.86 127.04C182.113 127.04 181.533 127.233 181.12 127.62C180.707 127.993 180.46 128.46 180.38 129.02H178.16ZM191.335 136.9C192.615 135.793 193.622 134.887 194.355 134.18C195.102 133.46 195.722 132.713 196.215 131.94C196.708 131.167 196.955 130.393 196.955 129.62C196.955 128.82 196.762 128.193 196.375 127.74C196.002 127.287 195.408 127.06 194.595 127.06C193.808 127.06 193.195 127.313 192.755 127.82C192.328 128.313 192.102 128.98 192.075 129.82H189.875C189.915 128.3 190.368 127.14 191.235 126.34C192.115 125.527 193.228 125.12 194.575 125.12C196.028 125.12 197.162 125.52 197.975 126.32C198.802 127.12 199.215 128.187 199.215 129.52C199.215 130.48 198.968 131.407 198.475 132.3C197.995 133.18 197.415 133.973 196.735 134.68C196.068 135.373 195.215 136.18 194.175 137.1L193.275 137.9H199.615V139.8H189.895V138.14L191.335 136.9Z" fill="white"/>
<path d="M211.477 135.966V130.341H212.432V135.966H211.477ZM209.142 133.631V132.676H214.767V133.631H209.142ZM216.403 137.5V136.733L219.284 133.58C219.622 133.21 219.901 132.889 220.119 132.616C220.338 132.341 220.5 132.082 220.605 131.841C220.713 131.597 220.767 131.341 220.767 131.074C220.767 130.767 220.693 130.501 220.545 130.277C220.401 130.053 220.202 129.879 219.949 129.757C219.696 129.635 219.412 129.574 219.097 129.574C218.761 129.574 218.469 129.643 218.219 129.783C217.972 129.919 217.78 130.111 217.643 130.358C217.51 130.605 217.443 130.895 217.443 131.227H216.438C216.438 130.716 216.555 130.267 216.791 129.881C217.027 129.494 217.348 129.193 217.754 128.977C218.163 128.761 218.622 128.653 219.131 128.653C219.642 128.653 220.095 128.761 220.49 128.977C220.885 129.193 221.195 129.484 221.419 129.851C221.643 130.217 221.756 130.625 221.756 131.074C221.756 131.395 221.697 131.709 221.581 132.016C221.467 132.32 221.268 132.659 220.984 133.034C220.703 133.406 220.312 133.861 219.812 134.398L217.852 136.494V136.562H221.909V137.5H216.403ZM223.277 135.71V134.841L227.112 128.773H227.743V130.119H227.317L224.419 134.705V134.773H229.584V135.71H223.277ZM227.385 137.5V135.446V135.041V128.773H228.391V137.5H227.385ZM235.63 135.864V135.403C235.63 135.085 235.695 134.794 235.826 134.53C235.959 134.263 236.152 134.05 236.405 133.891C236.661 133.729 236.971 133.648 237.334 133.648C237.703 133.648 238.013 133.729 238.263 133.891C238.513 134.05 238.702 134.263 238.83 134.53C238.958 134.794 239.022 135.085 239.022 135.403V135.864C239.022 136.182 238.956 136.474 238.826 136.741C238.698 137.006 238.507 137.219 238.255 137.381C238.005 137.54 237.698 137.619 237.334 137.619C236.965 137.619 236.654 137.54 236.401 137.381C236.148 137.219 235.956 137.006 235.826 136.741C235.695 136.474 235.63 136.182 235.63 135.864ZM236.499 135.403V135.864C236.499 136.128 236.561 136.365 236.686 136.575C236.811 136.783 237.027 136.886 237.334 136.886C237.632 136.886 237.843 136.783 237.965 136.575C238.09 136.365 238.152 136.128 238.152 135.864V135.403C238.152 135.139 238.093 134.903 237.973 134.696C237.854 134.486 237.641 134.381 237.334 134.381C237.036 134.381 236.821 134.486 236.691 134.696C236.563 134.903 236.499 135.139 236.499 135.403ZM231.283 130.869V130.409C231.283 130.091 231.348 129.8 231.479 129.536C231.613 129.268 231.806 129.055 232.059 128.896C232.314 128.734 232.624 128.653 232.988 128.653C233.357 128.653 233.667 128.734 233.917 128.896C234.167 129.055 234.355 129.268 234.483 129.536C234.611 129.8 234.675 130.091 234.675 130.409V130.869C234.675 131.187 234.61 131.48 234.479 131.747C234.351 132.011 234.161 132.224 233.908 132.386C233.658 132.545 233.351 132.625 232.988 132.625C232.618 132.625 232.307 132.545 232.054 132.386C231.801 132.224 231.61 132.011 231.479 131.747C231.348 131.48 231.283 131.187 231.283 130.869ZM232.152 130.409V130.869C232.152 131.134 232.215 131.371 232.34 131.581C232.465 131.788 232.681 131.892 232.988 131.892C233.286 131.892 233.496 131.788 233.618 131.581C233.743 131.371 233.806 131.134 233.806 130.869V130.409C233.806 130.145 233.746 129.909 233.627 129.702C233.507 129.491 233.294 129.386 232.988 129.386C232.689 129.386 232.475 129.491 232.344 129.702C232.216 129.909 232.152 130.145 232.152 130.409ZM231.607 137.5L237.607 128.773H238.578L232.578 137.5H231.607Z" fill="#DBDEEE"/>
</svg>
