<svg width="36" height="36" viewBox="0 0 36 36" fill="none" xmlns="http://www.w3.org/2000/svg">
<rect width="36" height="36" rx="8" fill="#5570F1" fill-opacity="0.12"/>
<path fill-rule="evenodd" clip-rule="evenodd" d="M22.3982 19.5743C22.9605 19.5743 23.4324 20.0384 23.3465 20.5936C22.8421 23.8603 20.0456 26.2857 16.6728 26.2857C12.9412 26.2857 9.91666 23.2612 9.91666 19.5305C9.91666 16.4568 12.2517 13.5936 14.8807 12.9462C15.4456 12.8068 16.0246 13.2041 16.0246 13.7857C16.0246 17.7261 16.157 18.7454 16.9053 19.2998C17.6535 19.8541 18.5333 19.5743 22.3982 19.5743Z" stroke="#5570F1" stroke-width="1.5" stroke-linecap="round" stroke-linejoin="round"/>
<path fill-rule="evenodd" clip-rule="evenodd" d="M26.0771 16.293C26.1218 13.7614 23.0122 9.68072 19.2227 9.75089C18.928 9.75616 18.692 10.0018 18.6788 10.2956C18.5832 12.3772 18.7122 15.0746 18.7841 16.2974C18.806 16.6781 19.1052 16.9772 19.485 16.9991C20.742 17.0711 23.5376 17.1693 25.5894 16.8588C25.8683 16.8167 26.0727 16.5746 26.0771 16.293Z" stroke="#5570F1" stroke-width="1.5" stroke-linecap="round" stroke-linejoin="round"/>
</svg>
